<mxfile host="65bd71144e">
    <diagram id="F3iFqbg2TOHQF5CPCOv8" name="Page-1">
        <mxGraphModel dx="1952" dy="1260" grid="1" gridSize="10" guides="1" tooltips="1" connect="1" arrows="1" fold="1" page="0" pageScale="1" pageWidth="850" pageHeight="1100" math="0" shadow="0">
            <root>
                <mxCell id="0"/>
                <mxCell id="1" parent="0"/>
                <mxCell id="74" value="" style="edgeStyle=orthogonalEdgeStyle;html=1;fontSize=14;fontColor=#FFFFFF;startArrow=classic;startFill=1;entryX=0;entryY=0.5;entryDx=0;entryDy=0;entryPerimeter=0;" parent="1" source="2" target="11" edge="1">
                    <mxGeometry relative="1" as="geometry">
                        <Array as="points">
                            <mxPoint x="430" y="33.43000000000001"/>
                            <mxPoint x="430" y="33.43000000000001"/>
                        </Array>
                    </mxGeometry>
                </mxCell>
                <mxCell id="2" value="" style="verticalLabelPosition=bottom;html=1;verticalAlign=top;align=center;strokeColor=none;fillColor=#00BEF2;shape=mxgraph.azure.website_generic;pointerEvents=1;" parent="1" vertex="1">
                    <mxGeometry x="282" y="-6.199999999999989" width="90" height="80" as="geometry"/>
                </mxCell>
                <mxCell id="71" value="" style="edgeStyle=orthogonalEdgeStyle;html=1;fontSize=14;fontColor=#FFFFFF;startArrow=classic;startFill=1;" parent="1" source="6" target="63" edge="1">
                    <mxGeometry relative="1" as="geometry"/>
                </mxCell>
                <mxCell id="6" value="Users" style="strokeColor=#dddddd;shadow=1;strokeWidth=1;rounded=1;absoluteArcSize=1;arcSize=2;labelPosition=center;verticalLabelPosition=middle;align=center;verticalAlign=bottom;spacingLeft=0;fontColor=#999999;fontSize=12;whiteSpace=wrap;spacingBottom=2;" parent="1" vertex="1">
                    <mxGeometry x="-130" y="-8.699999999999989" width="70" height="85" as="geometry"/>
                </mxCell>
                <mxCell id="7" value="" style="sketch=0;dashed=0;connectable=0;html=1;fillColor=#757575;strokeColor=none;shape=mxgraph.gcp2.users;part=1;" parent="6" vertex="1">
                    <mxGeometry x="0.5" width="50" height="31.5" relative="1" as="geometry">
                        <mxPoint x="-25" y="19.25" as="offset"/>
                    </mxGeometry>
                </mxCell>
                <mxCell id="73" value="" style="edgeStyle=orthogonalEdgeStyle;html=1;fontSize=14;fontColor=#FFFFFF;startArrow=classic;startFill=1;" parent="1" source="9" target="2" edge="1">
                    <mxGeometry relative="1" as="geometry"/>
                </mxCell>
                <mxCell id="9" value="&lt;font style=&quot;font-size: 14px&quot;&gt;Cloud&lt;br&gt;CDN&lt;/font&gt;" style="sketch=0;html=1;fillColor=#5184F3;strokeColor=none;verticalAlign=top;labelPosition=center;verticalLabelPosition=bottom;align=center;spacingTop=-6;fontSize=11;fontStyle=1;fontColor=#999999;shape=mxgraph.gcp2.hexIcon;prIcon=cloud_cdn" parent="1" vertex="1">
                    <mxGeometry x="130" y="-16.25999999999999" width="106" height="100.12" as="geometry"/>
                </mxCell>
                <mxCell id="20" style="html=1;fontSize=14;startArrow=none;startFill=0;edgeStyle=orthogonalEdgeStyle;" parent="1" source="11" target="17" edge="1">
                    <mxGeometry relative="1" as="geometry">
                        <Array as="points">
                            <mxPoint x="486" y="240"/>
                            <mxPoint x="655" y="240"/>
                        </Array>
                    </mxGeometry>
                </mxCell>
                <mxCell id="21" style="edgeStyle=orthogonalEdgeStyle;html=1;fontSize=14;startArrow=none;startFill=0;" parent="1" source="11" target="18" edge="1">
                    <mxGeometry relative="1" as="geometry">
                        <Array as="points">
                            <mxPoint x="486" y="240"/>
                            <mxPoint x="319" y="240"/>
                        </Array>
                    </mxGeometry>
                </mxCell>
                <mxCell id="22" style="edgeStyle=orthogonalEdgeStyle;html=1;fontSize=14;startArrow=none;startFill=0;" parent="1" source="11" target="16" edge="1">
                    <mxGeometry relative="1" as="geometry">
                        <Array as="points">
                            <mxPoint x="487" y="130"/>
                            <mxPoint x="487" y="130"/>
                        </Array>
                    </mxGeometry>
                </mxCell>
                <mxCell id="78" value="" style="edgeStyle=none;html=1;startArrow=classic;startFill=1;" parent="1" source="11" target="77" edge="1">
                    <mxGeometry relative="1" as="geometry"/>
                </mxCell>
                <mxCell id="93" style="edgeStyle=none;html=1;startArrow=classic;startFill=1;" edge="1" parent="1" source="11">
                    <mxGeometry relative="1" as="geometry">
                        <mxPoint x="240" y="200" as="targetPoint"/>
                        <Array as="points">
                            <mxPoint x="410" y="200"/>
                        </Array>
                    </mxGeometry>
                </mxCell>
                <mxCell id="100" style="edgeStyle=none;html=1;entryX=-0.022;entryY=0.785;entryDx=0;entryDy=0;entryPerimeter=0;startArrow=classic;startFill=1;exitX=0.75;exitY=1;exitDx=0;exitDy=0;exitPerimeter=0;" edge="1" parent="1" source="11" target="97">
                    <mxGeometry relative="1" as="geometry">
                        <Array as="points">
                            <mxPoint x="500" y="209"/>
                        </Array>
                    </mxGeometry>
                </mxCell>
                <mxCell id="104" style="edgeStyle=none;html=1;entryX=0.535;entryY=-0.049;entryDx=0;entryDy=0;entryPerimeter=0;startArrow=classic;startFill=1;" edge="1" parent="1" source="11" target="103">
                    <mxGeometry relative="1" as="geometry">
                        <Array as="points">
                            <mxPoint x="920" y="34"/>
                        </Array>
                    </mxGeometry>
                </mxCell>
                <mxCell id="11" value="" style="sketch=0;points=[[0,0,0],[0.25,0,0],[0.5,0,0],[0.75,0,0],[1,0,0],[0,1,0],[0.25,1,0],[0.5,1,0],[0.75,1,0],[1,1,0],[0,0.25,0],[0,0.5,0],[0,0.75,0],[1,0.25,0],[1,0.5,0],[1,0.75,0]];outlineConnect=0;fontColor=#232F3E;gradientColor=#FF4F8B;gradientDirection=north;fillColor=#BC1356;strokeColor=#ffffff;dashed=0;verticalLabelPosition=bottom;verticalAlign=top;align=center;html=1;fontSize=12;fontStyle=0;aspect=fixed;shape=mxgraph.aws4.resourceIcon;resIcon=mxgraph.aws4.api_gateway;" parent="1" vertex="1">
                    <mxGeometry x="437" y="-5.199999999999989" width="78" height="78" as="geometry"/>
                </mxCell>
                <mxCell id="13" value="Front-End&amp;nbsp; SPA e PWA" style="text;html=1;strokeColor=none;fillColor=none;align=center;verticalAlign=middle;whiteSpace=wrap;rounded=0;fontSize=14;" parent="1" vertex="1">
                    <mxGeometry x="252" y="76.30000000000001" width="150" height="30" as="geometry"/>
                </mxCell>
                <mxCell id="15" value="API" style="text;html=1;align=center;verticalAlign=middle;resizable=0;points=[];autosize=1;strokeColor=none;fillColor=none;fontSize=14;" parent="1" vertex="1">
                    <mxGeometry x="456" y="-22.19999999999999" width="40" height="20" as="geometry"/>
                </mxCell>
                <mxCell id="43" style="edgeStyle=orthogonalEdgeStyle;html=1;fontSize=14;fontColor=#FFFFFF;startArrow=none;startFill=0;" parent="1" source="16" target="41" edge="1">
                    <mxGeometry relative="1" as="geometry"/>
                </mxCell>
                <mxCell id="16" value="Fila Agendar Exames" style="outlineConnect=0;dashed=0;verticalLabelPosition=bottom;verticalAlign=top;align=center;html=1;shape=mxgraph.aws3.queue;fillColor=#D9A741;gradientColor=none;fontSize=14;labelBackgroundColor=default;" parent="1" vertex="1">
                    <mxGeometry x="449.75" y="290" width="73.5" height="48" as="geometry"/>
                </mxCell>
                <mxCell id="49" style="edgeStyle=orthogonalEdgeStyle;html=1;entryX=0.5;entryY=0;entryDx=0;entryDy=0;fontSize=14;fontColor=#FFFFFF;startArrow=none;startFill=0;" parent="1" source="17" target="48" edge="1">
                    <mxGeometry relative="1" as="geometry"/>
                </mxCell>
                <mxCell id="17" value="Fila Processar Pagamento" style="outlineConnect=0;dashed=0;verticalLabelPosition=bottom;verticalAlign=top;align=center;html=1;shape=mxgraph.aws3.queue;fillColor=#D9A741;gradientColor=none;fontSize=14;labelBackgroundColor=default;" parent="1" vertex="1">
                    <mxGeometry x="618.25" y="290" width="73.5" height="48" as="geometry"/>
                </mxCell>
                <mxCell id="26" style="edgeStyle=orthogonalEdgeStyle;html=1;entryX=0.5;entryY=0;entryDx=0;entryDy=0;fontSize=14;startArrow=none;startFill=0;" parent="1" source="18" target="25" edge="1">
                    <mxGeometry relative="1" as="geometry"/>
                </mxCell>
                <mxCell id="18" value="Fila Solicitar&lt;br&gt;&amp;nbsp;Resultado Exame" style="outlineConnect=0;dashed=0;verticalLabelPosition=bottom;verticalAlign=top;align=center;html=1;shape=mxgraph.aws3.queue;fillColor=#D9A741;gradientColor=none;fontSize=14;shadow=0;sketch=0;labelBackgroundColor=default;" parent="1" vertex="1">
                    <mxGeometry x="282" y="290" width="73.5" height="48" as="geometry"/>
                </mxCell>
                <mxCell id="29" style="edgeStyle=orthogonalEdgeStyle;html=1;entryX=0.5;entryY=0;entryDx=0;entryDy=0;fontSize=14;startArrow=classic;startFill=1;" parent="1" source="25" target="28" edge="1">
                    <mxGeometry relative="1" as="geometry">
                        <Array as="points"/>
                    </mxGeometry>
                </mxCell>
                <mxCell id="33" style="edgeStyle=orthogonalEdgeStyle;html=1;fontSize=14;startArrow=none;startFill=0;" parent="1" source="25" edge="1">
                    <mxGeometry relative="1" as="geometry">
                        <mxPoint x="190" y="445" as="targetPoint"/>
                    </mxGeometry>
                </mxCell>
                <mxCell id="39" style="edgeStyle=orthogonalEdgeStyle;html=1;fontSize=14;startArrow=none;startFill=0;" parent="1" source="25" target="38" edge="1">
                    <mxGeometry relative="1" as="geometry">
                        <mxPoint x="240" y="320" as="targetPoint"/>
                        <Array as="points">
                            <mxPoint x="240" y="445"/>
                            <mxPoint x="240" y="324"/>
                        </Array>
                    </mxGeometry>
                </mxCell>
                <mxCell id="95" style="edgeStyle=none;html=1;exitX=0;exitY=0;exitDx=0;exitDy=0;entryX=1.052;entryY=1.067;entryDx=0;entryDy=0;entryPerimeter=0;startArrow=classic;startFill=1;" edge="1" parent="1" source="25" target="92">
                    <mxGeometry relative="1" as="geometry">
                        <Array as="points">
                            <mxPoint x="250" y="420"/>
                            <mxPoint x="250" y="251"/>
                        </Array>
                    </mxGeometry>
                </mxCell>
                <mxCell id="25" value="Robôs&lt;br&gt;Consumindo Fila" style="html=1;dashed=0;whitespace=wrap;" parent="1" vertex="1">
                    <mxGeometry x="267" y="420" width="100" height="50" as="geometry"/>
                </mxCell>
                <mxCell id="28" value="DB" style="shape=datastore;whiteSpace=wrap;html=1;" parent="1" vertex="1">
                    <mxGeometry x="287" y="510" width="60" height="60" as="geometry"/>
                </mxCell>
                <mxCell id="64" style="edgeStyle=orthogonalEdgeStyle;html=1;entryX=0.267;entryY=1.027;entryDx=0;entryDy=0;entryPerimeter=0;fontSize=14;fontColor=#FFFFFF;startArrow=none;startFill=0;" parent="1" source="31" target="63" edge="1">
                    <mxGeometry relative="1" as="geometry"/>
                </mxCell>
                <mxCell id="31" value="Push Notification Service" style="verticalLabelPosition=top;html=1;verticalAlign=bottom;align=center;strokeColor=none;fillColor=#00BEF2;shape=mxgraph.azure.notification_hub;pointerEvents=1;shadow=0;labelBackgroundColor=default;sketch=0;fontSize=14;labelPosition=center;" parent="1" vertex="1">
                    <mxGeometry x="120" y="410" width="60" height="60" as="geometry"/>
                </mxCell>
                <mxCell id="65" style="edgeStyle=orthogonalEdgeStyle;html=1;fontSize=14;fontColor=#FFFFFF;startArrow=classic;startFill=1;" parent="1" source="38" target="63" edge="1">
                    <mxGeometry relative="1" as="geometry"/>
                </mxCell>
                <mxCell id="38" value="&lt;font color=&quot;#ffffff&quot;&gt;Bucket Exames no S3&lt;/font&gt;" style="sketch=0;outlineConnect=0;fontColor=#232F3E;gradientColor=none;fillColor=#3F8624;strokeColor=none;dashed=0;verticalLabelPosition=bottom;verticalAlign=top;align=center;html=1;fontSize=12;fontStyle=0;aspect=fixed;pointerEvents=1;shape=mxgraph.aws4.bucket;shadow=0;labelBackgroundColor=default;" parent="1" vertex="1">
                    <mxGeometry x="90" y="290" width="65" height="67.6" as="geometry"/>
                </mxCell>
                <mxCell id="55" style="edgeStyle=orthogonalEdgeStyle;html=1;entryX=0.5;entryY=0;entryDx=0;entryDy=0;fontSize=14;fontColor=#FFFFFF;startArrow=classic;startFill=1;" parent="1" source="41" target="53" edge="1">
                    <mxGeometry relative="1" as="geometry"/>
                </mxCell>
                <mxCell id="58" style="edgeStyle=orthogonalEdgeStyle;html=1;entryX=0.65;entryY=1;entryDx=0;entryDy=0;entryPerimeter=0;fontSize=14;fontColor=#FFFFFF;startArrow=none;startFill=0;" parent="1" source="41" target="31" edge="1">
                    <mxGeometry relative="1" as="geometry">
                        <Array as="points">
                            <mxPoint x="400" y="445"/>
                            <mxPoint x="400" y="600"/>
                            <mxPoint x="159" y="600"/>
                        </Array>
                    </mxGeometry>
                </mxCell>
                <mxCell id="101" style="edgeStyle=none;html=1;startArrow=classic;startFill=1;exitX=1;exitY=0;exitDx=0;exitDy=0;" edge="1" parent="1" source="41">
                    <mxGeometry relative="1" as="geometry">
                        <mxPoint x="590" y="230" as="targetPoint"/>
                        <Array as="points">
                            <mxPoint x="560" y="420"/>
                        </Array>
                    </mxGeometry>
                </mxCell>
                <mxCell id="41" value="Robôs&lt;br&gt;Consumindo Fila" style="html=1;dashed=0;whitespace=wrap;" parent="1" vertex="1">
                    <mxGeometry x="436.5" y="420" width="100" height="50" as="geometry"/>
                </mxCell>
                <mxCell id="56" value="" style="edgeStyle=orthogonalEdgeStyle;html=1;fontSize=14;fontColor=#FFFFFF;startArrow=classic;startFill=1;" parent="1" source="48" target="54" edge="1">
                    <mxGeometry relative="1" as="geometry"/>
                </mxCell>
                <mxCell id="60" style="edgeStyle=orthogonalEdgeStyle;html=1;fontSize=14;fontColor=#FFFFFF;startArrow=none;startFill=0;" parent="1" source="48" edge="1">
                    <mxGeometry relative="1" as="geometry">
                        <mxPoint x="130" y="469" as="targetPoint"/>
                        <Array as="points">
                            <mxPoint x="570" y="445"/>
                            <mxPoint x="570" y="640"/>
                            <mxPoint x="130" y="640"/>
                        </Array>
                    </mxGeometry>
                </mxCell>
                <mxCell id="84" style="edgeStyle=none;html=1;exitX=0.25;exitY=1;exitDx=0;exitDy=0;entryX=0.5;entryY=0;entryDx=0;entryDy=0;entryPerimeter=0;startArrow=classic;startFill=1;" parent="1" source="48" target="83" edge="1">
                    <mxGeometry relative="1" as="geometry">
                        <Array as="points">
                            <mxPoint x="591" y="500"/>
                        </Array>
                    </mxGeometry>
                </mxCell>
                <mxCell id="105" style="edgeStyle=none;html=1;entryX=0.535;entryY=0.995;entryDx=0;entryDy=0;entryPerimeter=0;startArrow=classic;startFill=1;" edge="1" parent="1" source="48" target="103">
                    <mxGeometry relative="1" as="geometry">
                        <Array as="points">
                            <mxPoint x="918" y="445"/>
                        </Array>
                    </mxGeometry>
                </mxCell>
                <mxCell id="48" value="Robôs&lt;br&gt;Consumindo Fila" style="html=1;dashed=0;whitespace=wrap;" parent="1" vertex="1">
                    <mxGeometry x="605" y="420" width="100" height="50" as="geometry"/>
                </mxCell>
                <mxCell id="53" value="DB" style="shape=datastore;whiteSpace=wrap;html=1;" parent="1" vertex="1">
                    <mxGeometry x="456.5" y="510" width="60" height="60" as="geometry"/>
                </mxCell>
                <mxCell id="81" style="edgeStyle=none;html=1;startArrow=classic;startFill=1;entryX=0;entryY=0;entryDx=0;entryDy=0;" parent="1" source="54" edge="1" target="82">
                    <mxGeometry relative="1" as="geometry">
                        <mxPoint x="530" y="130" as="targetPoint"/>
                        <Array as="points">
                            <mxPoint x="780" y="540"/>
                            <mxPoint x="780" y="130"/>
                            <mxPoint x="780" y="56"/>
                        </Array>
                    </mxGeometry>
                </mxCell>
                <mxCell id="54" value="DB" style="shape=datastore;whiteSpace=wrap;html=1;" parent="1" vertex="1">
                    <mxGeometry x="625" y="510" width="60" height="60" as="geometry"/>
                </mxCell>
                <mxCell id="72" value="" style="edgeStyle=orthogonalEdgeStyle;html=1;fontSize=14;fontColor=#FFFFFF;startArrow=classic;startFill=1;" parent="1" source="63" target="9" edge="1">
                    <mxGeometry relative="1" as="geometry"/>
                </mxCell>
                <mxCell id="63" value="Navegador" style="aspect=fixed;html=1;points=[];align=center;image;fontSize=12;image=img/lib/azure2/general/Browser.svg;shadow=0;labelBackgroundColor=#000000;sketch=0;fontColor=#FFFFFF;labelPosition=center;verticalLabelPosition=top;verticalAlign=bottom;" parent="1" vertex="1">
                    <mxGeometry x="10" y="3.8000000000000114" width="75" height="60" as="geometry"/>
                </mxCell>
                <mxCell id="76" value="Todos DB referenciam a mesma instância" style="text;html=1;strokeColor=none;fillColor=none;align=center;verticalAlign=middle;whiteSpace=wrap;rounded=0;shadow=0;labelBackgroundColor=#000000;sketch=0;fontSize=13;fontColor=#FFFFFF;" parent="1" vertex="1">
                    <mxGeometry x="640" y="580" width="150" height="30" as="geometry"/>
                </mxCell>
                <mxCell id="90" value="" style="edgeStyle=none;html=1;startArrow=classic;startFill=1;" parent="1" source="77" target="86" edge="1">
                    <mxGeometry relative="1" as="geometry"/>
                </mxCell>
                <mxCell id="77" value="Cache Dados Hospital" style="sketch=0;aspect=fixed;html=1;points=[];align=center;image;fontSize=12;image=img/lib/mscae/Cache_Redis_Product.svg;labelPosition=center;verticalLabelPosition=top;verticalAlign=bottom;" parent="1" vertex="1">
                    <mxGeometry x="570" y="-50" width="90" height="75.6" as="geometry"/>
                </mxCell>
                <mxCell id="82" value="&lt;br&gt;&lt;br&gt;Verifica Dados Hospital no Cache se não tiver os dados vai no BD e grava no cache o resultado" style="text;html=1;strokeColor=none;fillColor=none;align=center;verticalAlign=middle;whiteSpace=wrap;rounded=0;" parent="1" vertex="1">
                    <mxGeometry x="516.5" y="56.3" width="245" height="50" as="geometry"/>
                </mxCell>
                <mxCell id="83" value="Gateway de Pagamento Processa e Responde cada Solicitação de pagamento" style="outlineConnect=0;dashed=0;verticalLabelPosition=bottom;verticalAlign=top;align=center;html=1;shape=mxgraph.aws3.internet_gateway;fillColor=#F58534;gradientColor=none;" parent="1" vertex="1">
                    <mxGeometry x="556" y="670" width="69" height="72" as="geometry"/>
                </mxCell>
                <mxCell id="85" value="&lt;h1&gt;Arquitetura 02&lt;/h1&gt;&lt;p&gt;&lt;br&gt;&lt;/p&gt;&lt;p&gt;&lt;br&gt;&lt;/p&gt;" style="text;html=1;strokeColor=none;fillColor=none;spacing=5;spacingTop=-20;whiteSpace=wrap;overflow=hidden;rounded=0;" parent="1" vertex="1">
                    <mxGeometry x="-130" y="-84" width="190" height="50" as="geometry"/>
                </mxCell>
                <mxCell id="88" style="edgeStyle=none;html=1;exitX=0.75;exitY=1;exitDx=0;exitDy=0;startArrow=classic;startFill=1;entryX=1.05;entryY=0.833;entryDx=0;entryDy=0;entryPerimeter=0;" parent="1" source="86" target="54" edge="1">
                    <mxGeometry relative="1" as="geometry">
                        <mxPoint x="790" y="560" as="targetPoint"/>
                        <Array as="points">
                            <mxPoint x="813" y="560"/>
                        </Array>
                    </mxGeometry>
                </mxCell>
                <mxCell id="86" value="Rotina Atualização&lt;br&gt;Cache dos &lt;br&gt;Dados Hospital" style="html=1;dashed=0;whitespace=wrap;" parent="1" vertex="1">
                    <mxGeometry x="730" y="-37.199999999999996" width="110" height="50" as="geometry"/>
                </mxCell>
                <mxCell id="92" value="Cache Ultimos Arquivos" style="sketch=0;aspect=fixed;html=1;points=[];align=center;image;fontSize=12;image=img/lib/mscae/Cache_Redis_Product.svg;labelPosition=center;verticalLabelPosition=top;verticalAlign=bottom;" vertex="1" parent="1">
                    <mxGeometry x="138" y="170" width="90" height="75.6" as="geometry"/>
                </mxCell>
                <mxCell id="97" value="Cache Dados Agendamento" style="sketch=0;aspect=fixed;html=1;points=[];align=center;image;fontSize=12;image=img/lib/mscae/Cache_Redis_Product.svg;labelPosition=center;verticalLabelPosition=top;verticalAlign=bottom;" vertex="1" parent="1">
                    <mxGeometry x="560" y="150" width="90" height="75.6" as="geometry"/>
                </mxCell>
                <mxCell id="103" value="Cache Dados Pagamento" style="sketch=0;aspect=fixed;html=1;points=[];align=left;image;fontSize=12;image=img/lib/mscae/Cache_Redis_Product.svg;labelPosition=right;verticalLabelPosition=middle;verticalAlign=middle;" vertex="1" parent="1">
                    <mxGeometry x="870" y="150" width="90" height="75.6" as="geometry"/>
                </mxCell>
            </root>
        </mxGraphModel>
    </diagram>
</mxfile>